<?xml version="1.0" encoding="UTF-8"?>
<svg width="18px" height="18px" viewBox="0 0 18 18" version="1.1" xmlns="http://www.w3.org/2000/svg" xmlns:xlink="http://www.w3.org/1999/xlink">
    <!-- Generator: Sketch 47.1 (45422) - http://www.bohemiancoding.com/sketch -->
    <title>Group 4</title>
    <desc>Created with Sketch.</desc>
    <defs></defs>
    <g id="Page-1" stroke="none" stroke-width="1" fill="none" fill-rule="evenodd">
        <g id="Desktop-Custom" transform="translate(-858.000000, -257.000000)">
            <g id="Group-4" transform="translate(858.000000, 257.000000)">
                <circle id="Oval" fill="#FFFFFF" cx="9" cy="9" r="8"></circle>
                <path d="M9,15.5120192 C10.0961593,15.5120192 11.127399,15.2379835 12.09375,14.6899038 C13.0312547,14.1850936 13.8028816,13.4855814 14.4086538,12.5913462 C14.3942307,12.0432665 14.0552918,11.5384638 13.3918269,11.0769231 C12.814901,10.6874981 12.0793314,10.3701935 11.1850962,10.125 C10.3773998,9.90865276 9.64543597,9.80048077 8.98918269,9.80048077 C8.33292941,9.80048077 7.60096558,9.90865276 6.79326923,10.125 C5.89903399,10.3701935 5.17067589,10.6874981 4.60817308,11.0769231 C3.94470822,11.5384638 3.6057693,12.0432665 3.59134615,12.5913462 C4.19711841,13.4855814 4.96874531,14.1850936 5.90625,14.6899038 C6.88702413,15.2379835 7.91826382,15.5120192 9,15.5120192 Z M9,2.70432692 C8.52403608,2.70432692 8.07692517,2.82692185 7.65865385,3.07211538 C7.24038252,3.31730892 6.90865507,3.64903637 6.66346154,4.06730769 C6.418268,4.48557901 6.29567308,4.93268993 6.29567308,5.40865385 C6.29567308,5.88461776 6.418268,6.33172868 6.66346154,6.75 C6.90865507,7.16827132 7.24038252,7.49999877 7.65865385,7.74519231 C8.07692517,7.99038584 8.52403608,8.11298077 9,8.11298077 C9.47596392,8.11298077 9.92307483,7.99038584 10.3413462,7.74519231 C10.7596175,7.49999877 11.0913449,7.16827132 11.3365385,6.75 C11.581732,6.33172868 11.7043269,5.88461776 11.7043269,5.40865385 C11.7043269,4.93268993 11.581732,4.48557901 11.3365385,4.06730769 C11.0913449,3.64903637 10.7596175,3.31730892 10.3413462,3.07211538 C9.92307483,2.82692185 9.47596392,2.70432692 9,2.70432692 Z M9,0 C10.644239,0 12.1658584,0.411053582 13.5649038,1.23317308 C14.9206799,2.01202312 15.9879769,3.07932014 16.7668269,4.43509615 C17.5889464,5.83414161 18,7.35576101 18,9 C18,10.644239 17.5889464,12.1658584 16.7668269,13.5649038 C15.9879769,14.9206799 14.9206799,15.9879769 13.5649038,16.7668269 C12.1658584,17.5889464 10.644239,18 9,18 C7.35576101,18 5.83414161,17.5889464 4.43509615,16.7668269 C3.07932014,15.9735537 2.01202313,14.8990452 1.23317308,13.5432692 C0.411053582,12.1442238 0,10.6298158 0,9 C0,7.37018416 0.411053582,5.85577623 1.23317308,4.45673077 C2.02644627,3.10095476 3.10095476,2.02644627 4.45673077,1.23317308 C5.85577623,0.411053582 7.37018416,0 9,0 Z" id="account_circle---material" fill="#54C0D9"></path>
            </g>
        </g>
    </g>
</svg>